<svg xmlns="http://www.w3.org/2000/svg" xmlns:xlink="http://www.w3.org/1999/xlink" width="500" zoomAndPan="magnify" viewBox="0 0 375 374.999991" height="500" preserveAspectRatio="xMidYMid meet" version="1.0"><defs><g/><clipPath id="41f2c1c71f"><path d="M 147.582031 129.113281 L 227.082031 129.113281 L 227.082031 201.863281 L 147.582031 201.863281 Z M 147.582031 129.113281 " clip-rule="nonzero"/></clipPath></defs><g clip-path="url(#41f2c1c71f)"><path fill="#c8a287" d="M 227.066406 137.710938 L 219.324219 173.25 C 219.074219 174.410156 218.761719 175.558594 218.398438 176.695312 C 218.03125 177.828125 217.609375 178.941406 217.136719 180.03125 C 216.660156 181.125 216.132812 182.1875 215.554688 183.230469 C 214.972656 184.269531 214.34375 185.277344 213.664062 186.253906 C 212.988281 187.234375 212.261719 188.175781 211.492188 189.082031 C 210.722656 189.988281 209.90625 190.855469 209.050781 191.679688 C 208.195312 192.507812 207.300781 193.289062 206.371094 194.027344 C 205.4375 194.765625 204.472656 195.457031 203.472656 196.101562 C 202.472656 196.742188 201.441406 197.335938 200.382812 197.878906 C 199.328125 198.417969 198.246094 198.90625 197.136719 199.34375 C 196.03125 199.777344 194.90625 200.15625 193.765625 200.480469 C 192.621094 200.804688 191.464844 201.074219 190.296875 201.285156 C 189.125 201.496094 187.949219 201.648438 186.765625 201.742188 C 185.582031 201.835938 184.394531 201.871094 183.207031 201.847656 C 182.019531 201.828125 180.835938 201.746094 179.65625 201.605469 C 178.476562 201.46875 177.304688 201.269531 176.144531 201.015625 C 174.984375 200.761719 173.839844 200.453125 172.707031 200.085938 C 171.578125 199.71875 170.46875 199.296875 169.378906 198.820312 C 168.289062 198.34375 167.226562 197.816406 166.191406 197.234375 C 165.152344 196.652344 164.148438 196.023438 163.171875 195.34375 C 162.195312 194.664062 161.257812 193.9375 160.355469 193.164062 C 159.449219 192.390625 158.585938 191.574219 157.761719 190.71875 C 156.9375 189.859375 156.15625 188.964844 155.421875 188.027344 C 154.683594 187.09375 153.996094 186.125 153.355469 185.125 C 152.710938 184.121094 152.121094 183.089844 151.582031 182.027344 C 151.042969 180.96875 150.554688 179.882812 150.121094 178.773438 C 149.6875 177.664062 149.308594 176.539062 148.984375 175.390625 C 148.660156 174.246094 148.394531 173.085938 148.183594 171.914062 C 147.972656 170.742188 147.820312 169.5625 147.726562 168.375 C 147.632812 167.1875 147.597656 166 147.617188 164.808594 C 147.640625 163.617188 147.722656 162.429688 147.859375 161.246094 C 147.996094 160.0625 148.195312 158.890625 148.449219 157.726562 C 148.699219 156.5625 149.011719 155.414062 149.375 154.28125 C 149.742188 153.148438 150.164062 152.035156 150.636719 150.945312 C 151.113281 149.851562 151.640625 148.785156 152.21875 147.746094 C 152.796875 146.707031 153.425781 145.695312 154.105469 144.71875 C 154.785156 143.742188 155.507812 142.796875 156.277344 141.890625 C 157.050781 140.984375 157.863281 140.117188 158.71875 139.292969 C 159.574219 138.464844 160.46875 137.683594 161.398438 136.945312 C 162.332031 136.207031 163.296875 135.515625 164.296875 134.871094 C 165.296875 134.226562 166.328125 133.636719 167.382812 133.09375 C 168.441406 132.550781 169.523438 132.0625 170.628906 131.628906 C 171.734375 131.191406 172.859375 130.8125 174.003906 130.488281 C 175.148438 130.164062 176.304688 129.894531 177.472656 129.6875 C 178.640625 129.476562 179.820312 129.324219 181.003906 129.226562 C 182.1875 129.132812 183.375 129.097656 184.5625 129.121094 C 185.75 129.140625 186.933594 129.222656 188.113281 129.359375 C 189.292969 129.5 190.464844 129.695312 191.625 129.949219 Z M 227.066406 137.710938 " fill-opacity="1" fill-rule="nonzero"/></g><path fill="#ffffff" d="M 207.96875 165.578125 C 207.96875 166.445312 207.925781 167.308594 207.84375 168.171875 C 207.757812 169.03125 207.628906 169.886719 207.460938 170.738281 C 207.292969 171.585938 207.085938 172.425781 206.832031 173.253906 C 206.582031 174.085938 206.292969 174.898438 205.960938 175.699219 C 205.628906 176.5 205.261719 177.28125 204.855469 178.046875 C 204.449219 178.808594 204.003906 179.550781 203.523438 180.269531 C 203.042969 180.992188 202.53125 181.6875 201.980469 182.355469 C 201.433594 183.023438 200.855469 183.667969 200.242188 184.277344 C 199.632812 184.890625 198.992188 185.472656 198.324219 186.023438 C 197.65625 186.570312 196.964844 187.085938 196.246094 187.566406 C 195.527344 188.050781 194.789062 188.492188 194.027344 188.902344 C 193.265625 189.308594 192.484375 189.679688 191.6875 190.011719 C 190.886719 190.34375 190.074219 190.632812 189.25 190.886719 C 188.421875 191.136719 187.585938 191.347656 186.738281 191.515625 C 185.890625 191.683594 185.039062 191.8125 184.179688 191.898438 C 183.316406 191.980469 182.457031 192.023438 181.59375 192.023438 C 180.730469 192.023438 179.867188 191.980469 179.007812 191.898438 C 178.148438 191.8125 177.292969 191.683594 176.445312 191.515625 C 175.597656 191.347656 174.761719 191.136719 173.9375 190.886719 C 173.109375 190.632812 172.296875 190.34375 171.5 190.011719 C 170.699219 189.679688 169.921875 189.308594 169.160156 188.902344 C 168.398438 188.492188 167.65625 188.050781 166.9375 187.566406 C 166.21875 187.085938 165.527344 186.570312 164.859375 186.023438 C 164.191406 185.472656 163.550781 184.890625 162.941406 184.277344 C 162.332031 183.667969 161.75 183.023438 161.203125 182.355469 C 160.65625 181.6875 160.140625 180.992188 159.660156 180.269531 C 159.179688 179.550781 158.738281 178.808594 158.332031 178.046875 C 157.921875 177.28125 157.554688 176.5 157.222656 175.699219 C 156.894531 174.898438 156.601562 174.085938 156.351562 173.253906 C 156.101562 172.425781 155.890625 171.585938 155.722656 170.738281 C 155.554688 169.886719 155.425781 169.03125 155.34375 168.171875 C 155.257812 167.308594 155.214844 166.445312 155.214844 165.578125 C 155.214844 164.710938 155.257812 163.847656 155.34375 162.984375 C 155.425781 162.125 155.554688 161.269531 155.722656 160.417969 C 155.890625 159.570312 156.101562 158.730469 156.351562 157.902344 C 156.601562 157.074219 156.894531 156.257812 157.222656 155.457031 C 157.554688 154.65625 157.921875 153.875 158.332031 153.113281 C 158.738281 152.347656 159.179688 151.605469 159.660156 150.886719 C 160.140625 150.164062 160.65625 149.46875 161.203125 148.800781 C 161.75 148.132812 162.332031 147.492188 162.941406 146.878906 C 163.550781 146.265625 164.191406 145.683594 164.859375 145.136719 C 165.527344 144.585938 166.21875 144.070312 166.9375 143.589844 C 167.65625 143.109375 168.398438 142.664062 169.160156 142.253906 C 169.921875 141.847656 170.699219 141.476562 171.5 141.144531 C 172.296875 140.8125 173.109375 140.523438 173.9375 140.269531 C 174.761719 140.019531 175.597656 139.808594 176.445312 139.640625 C 177.292969 139.472656 178.148438 139.34375 179.007812 139.257812 C 179.867188 139.175781 180.730469 139.132812 181.59375 139.132812 C 182.457031 139.132812 183.316406 139.175781 184.179688 139.257812 C 185.039062 139.34375 185.890625 139.472656 186.738281 139.640625 C 187.585938 139.808594 188.421875 140.019531 189.25 140.269531 C 190.074219 140.523438 190.886719 140.8125 191.6875 141.144531 C 192.484375 141.476562 193.265625 141.847656 194.027344 142.253906 C 194.789062 142.664062 195.527344 143.109375 196.246094 143.589844 C 196.964844 144.070312 197.65625 144.585938 198.324219 145.136719 C 198.992188 145.683594 199.632812 146.265625 200.242188 146.878906 C 200.855469 147.492188 201.433594 148.132812 201.980469 148.800781 C 202.53125 149.46875 203.042969 150.164062 203.523438 150.886719 C 204.003906 151.605469 204.449219 152.347656 204.855469 153.113281 C 205.261719 153.875 205.628906 154.65625 205.960938 155.457031 C 206.292969 156.257812 206.582031 157.074219 206.832031 157.902344 C 207.085938 158.730469 207.292969 159.570312 207.460938 160.417969 C 207.628906 161.269531 207.757812 162.125 207.84375 162.984375 C 207.925781 163.847656 207.96875 164.710938 207.96875 165.578125 Z M 207.96875 165.578125 " fill-opacity="1" fill-rule="nonzero"/><path fill="#c8a287" d="M 201.878906 165.578125 C 201.878906 166.246094 201.847656 166.910156 201.78125 167.570312 C 201.71875 168.234375 201.621094 168.894531 201.488281 169.546875 C 201.359375 170.199219 201.199219 170.84375 201.007812 171.484375 C 200.8125 172.121094 200.589844 172.746094 200.335938 173.363281 C 200.082031 173.976562 199.796875 174.578125 199.484375 175.167969 C 199.171875 175.753906 198.828125 176.324219 198.460938 176.878906 C 198.089844 177.433594 197.695312 177.96875 197.273438 178.484375 C 196.851562 178.996094 196.40625 179.492188 195.9375 179.960938 C 195.46875 180.433594 194.976562 180.878906 194.460938 181.300781 C 193.949219 181.726562 193.417969 182.121094 192.863281 182.492188 C 192.3125 182.863281 191.742188 183.203125 191.15625 183.515625 C 190.570312 183.832031 189.96875 184.117188 189.355469 184.371094 C 188.742188 184.625 188.117188 184.851562 187.480469 185.042969 C 186.847656 185.238281 186.203125 185.398438 185.550781 185.527344 C 184.898438 185.660156 184.242188 185.757812 183.582031 185.820312 C 182.917969 185.886719 182.257812 185.917969 181.59375 185.917969 C 180.929688 185.917969 180.265625 185.886719 179.605469 185.820312 C 178.941406 185.757812 178.285156 185.660156 177.632812 185.527344 C 176.984375 185.398438 176.339844 185.238281 175.703125 185.042969 C 175.066406 184.851562 174.441406 184.625 173.828125 184.371094 C 173.214844 184.117188 172.613281 183.832031 172.027344 183.515625 C 171.441406 183.203125 170.875 182.863281 170.320312 182.492188 C 169.769531 182.121094 169.234375 181.726562 168.722656 181.300781 C 168.207031 180.878906 167.71875 180.433594 167.246094 179.960938 C 166.777344 179.492188 166.332031 178.996094 165.910156 178.484375 C 165.488281 177.96875 165.09375 177.433594 164.722656 176.878906 C 164.355469 176.324219 164.015625 175.753906 163.699219 175.167969 C 163.386719 174.578125 163.105469 173.976562 162.847656 173.363281 C 162.59375 172.746094 162.371094 172.121094 162.179688 171.484375 C 161.984375 170.84375 161.824219 170.199219 161.695312 169.546875 C 161.566406 168.894531 161.46875 168.234375 161.402344 167.570312 C 161.335938 166.910156 161.304688 166.246094 161.304688 165.578125 C 161.304688 164.914062 161.335938 164.246094 161.402344 163.585938 C 161.46875 162.921875 161.566406 162.261719 161.695312 161.609375 C 161.824219 160.957031 161.984375 160.3125 162.179688 159.671875 C 162.371094 159.035156 162.59375 158.410156 162.847656 157.792969 C 163.105469 157.179688 163.386719 156.578125 163.699219 155.988281 C 164.015625 155.402344 164.355469 154.832031 164.722656 154.277344 C 165.09375 153.722656 165.488281 153.1875 165.910156 152.675781 C 166.332031 152.160156 166.777344 151.667969 167.246094 151.195312 C 167.71875 150.722656 168.207031 150.277344 168.722656 149.855469 C 169.234375 149.433594 169.769531 149.035156 170.320312 148.664062 C 170.875 148.296875 171.441406 147.953125 172.027344 147.640625 C 172.613281 147.324219 173.214844 147.039062 173.828125 146.785156 C 174.441406 146.53125 175.066406 146.308594 175.703125 146.113281 C 176.339844 145.917969 176.984375 145.757812 177.632812 145.628906 C 178.285156 145.5 178.941406 145.402344 179.605469 145.335938 C 180.265625 145.269531 180.929688 145.238281 181.59375 145.238281 C 182.257812 145.238281 182.917969 145.269531 183.582031 145.335938 C 184.242188 145.402344 184.898438 145.5 185.550781 145.628906 C 186.203125 145.757812 186.847656 145.917969 187.480469 146.113281 C 188.117188 146.308594 188.742188 146.53125 189.355469 146.785156 C 189.96875 147.039062 190.570312 147.324219 191.15625 147.640625 C 191.742188 147.953125 192.3125 148.296875 192.863281 148.664062 C 193.417969 149.035156 193.949219 149.433594 194.460938 149.855469 C 194.976562 150.277344 195.46875 150.722656 195.9375 151.195312 C 196.40625 151.667969 196.851562 152.160156 197.273438 152.675781 C 197.695312 153.1875 198.089844 153.722656 198.460938 154.277344 C 198.828125 154.832031 199.171875 155.402344 199.484375 155.988281 C 199.796875 156.578125 200.082031 157.179688 200.335938 157.792969 C 200.589844 158.410156 200.8125 159.035156 201.007812 159.671875 C 201.199219 160.3125 201.359375 160.957031 201.488281 161.609375 C 201.621094 162.261719 201.71875 162.921875 201.78125 163.585938 C 201.847656 164.246094 201.878906 164.914062 201.878906 165.578125 Z M 201.878906 165.578125 " fill-opacity="1" fill-rule="nonzero"/><path fill="#ffffff" d="M 186.984375 162.246094 C 186.984375 162.976562 186.910156 163.703125 186.769531 164.417969 C 186.628906 165.136719 186.417969 165.835938 186.136719 166.511719 C 185.859375 167.1875 185.515625 167.828125 185.109375 168.4375 C 184.703125 169.046875 184.242188 169.609375 183.726562 170.128906 C 183.210938 170.644531 182.648438 171.105469 182.042969 171.511719 C 181.433594 171.921875 180.792969 172.261719 180.121094 172.542969 C 179.445312 172.824219 178.75 173.035156 178.035156 173.179688 C 177.316406 173.320312 176.59375 173.390625 175.863281 173.390625 C 175.136719 173.390625 174.410156 173.320312 173.695312 173.179688 C 172.980469 173.035156 172.285156 172.824219 171.609375 172.542969 C 170.9375 172.261719 170.296875 171.921875 169.6875 171.511719 C 169.082031 171.105469 168.519531 170.644531 168.003906 170.128906 C 167.488281 169.609375 167.027344 169.046875 166.621094 168.4375 C 166.214844 167.828125 165.871094 167.1875 165.59375 166.511719 C 165.3125 165.835938 165.101562 165.136719 164.960938 164.417969 C 164.816406 163.703125 164.746094 162.976562 164.746094 162.246094 C 164.746094 161.511719 164.816406 160.789062 164.960938 160.070312 C 165.101562 159.351562 165.3125 158.65625 165.59375 157.980469 C 165.871094 157.300781 166.214844 156.660156 166.621094 156.050781 C 167.027344 155.441406 167.488281 154.878906 168.003906 154.363281 C 168.519531 153.84375 169.082031 153.382812 169.6875 152.976562 C 170.296875 152.570312 170.9375 152.226562 171.609375 151.945312 C 172.285156 151.664062 172.980469 151.453125 173.695312 151.3125 C 174.410156 151.167969 175.136719 151.097656 175.863281 151.097656 C 176.59375 151.097656 177.316406 151.167969 178.035156 151.3125 C 178.75 151.453125 179.445312 151.664062 180.121094 151.945312 C 180.792969 152.226562 181.433594 152.570312 182.042969 152.976562 C 182.648438 153.382812 183.210938 153.84375 183.726562 154.363281 C 184.242188 154.878906 184.703125 155.441406 185.109375 156.050781 C 185.515625 156.660156 185.859375 157.300781 186.136719 157.980469 C 186.417969 158.65625 186.628906 159.351562 186.769531 160.070312 C 186.910156 160.789062 186.984375 161.511719 186.984375 162.246094 Z M 186.984375 162.246094 " fill-opacity="1" fill-rule="nonzero"/><path fill="#ffffff" d="M 210.933594 144.375 L 214.839844 150.46875 L 203.746094 157.613281 L 199.839844 151.515625 Z M 210.933594 144.375 " fill-opacity="1" fill-rule="nonzero"/><g fill="#ffffff" fill-opacity="1"><g transform="translate(123.387214, 226.402603)"><g><path d="M 3.996094 0 L 5.773438 0 L 5.773438 -14.128906 L 4.378906 -14.128906 L 4.15625 -13.097656 C 3.9375 -12.128906 3.53125 -11.847656 2.300781 -11.847656 L 0.746094 -11.847656 L 0.746094 -10.191406 L 3.996094 -10.191406 Z M 3.996094 0 "/></g></g></g><g fill="#ffffff" fill-opacity="1"><g transform="translate(132.125265, 226.402603)"><g><path d="M 7.0625 0.261719 C 10.597656 0.261719 12.753906 -2.542969 12.753906 -7.0625 C 12.753906 -11.585938 10.597656 -14.390625 7.0625 -14.390625 C 3.550781 -14.390625 1.351562 -11.585938 1.351562 -7.0625 C 1.351562 -2.542969 3.550781 0.261719 7.0625 0.261719 Z M 3.109375 -7.0625 C 3.109375 -10.535156 4.621094 -12.675781 7.0625 -12.675781 C 9.507812 -12.675781 11 -10.535156 11 -7.0625 C 11 -3.59375 9.507812 -1.453125 7.0625 -1.453125 C 4.621094 -1.453125 3.109375 -3.59375 3.109375 -7.0625 Z M 3.109375 -7.0625 "/></g></g></g><g fill="#ffffff" fill-opacity="1"><g transform="translate(147.139199, 226.402603)"><g><path d="M 1.453125 0 L 11.28125 0 L 11.28125 -1.65625 L 4.359375 -1.65625 L 8.4375 -5.367188 C 10.191406 -6.984375 11 -8.558594 11 -10.152344 C 11 -12.632812 9.023438 -14.390625 6.316406 -14.390625 C 3.550781 -14.390625 1.695312 -12.554688 1.613281 -9.726562 L 3.269531 -9.726562 C 3.332031 -11.6875 4.542969 -12.835938 6.335938 -12.835938 C 8.074219 -12.835938 9.285156 -11.765625 9.285156 -10.152344 C 9.285156 -8.980469 8.660156 -7.953125 7.304688 -6.699219 L 1.453125 -1.332031 Z M 1.453125 0 "/></g></g></g><g fill="#ffffff" fill-opacity="1"><g transform="translate(160.982712, 226.402603)"><g/></g></g><g fill="#ffffff" fill-opacity="1"><g transform="translate(166.895605, 226.402603)"><g><path d="M 8.316406 0.261719 C 11.746094 0.261719 14.53125 -1.816406 15.378906 -4.964844 L 13.503906 -4.964844 C 12.777344 -2.847656 10.777344 -1.515625 8.375 -1.515625 C 5.226562 -1.515625 2.988281 -3.792969 2.988281 -7.0625 C 2.988281 -10.332031 5.226562 -12.613281 8.375 -12.613281 C 10.71875 -12.613281 12.632812 -11.363281 13.359375 -9.324219 L 15.257812 -9.324219 C 14.328125 -12.433594 11.644531 -14.390625 8.316406 -14.390625 C 4.15625 -14.390625 1.171875 -11.324219 1.171875 -7.0625 C 1.171875 -2.804688 4.15625 0.261719 8.316406 0.261719 Z M 8.316406 0.261719 "/></g></g></g><g fill="#ffffff" fill-opacity="1"><g transform="translate(184.270567, 226.402603)"><g><path d="M 8.476562 0.261719 C 12.777344 0.261719 15.804688 -2.765625 15.804688 -7.0625 C 15.804688 -11.363281 12.777344 -14.390625 8.476562 -14.390625 C 4.179688 -14.390625 1.171875 -11.363281 1.171875 -7.0625 C 1.171875 -2.765625 4.179688 0.261719 8.476562 0.261719 Z M 2.988281 -7.0625 C 2.988281 -10.355469 5.226562 -12.613281 8.476562 -12.613281 C 11.726562 -12.613281 13.964844 -10.355469 13.964844 -7.0625 C 13.964844 -3.773438 11.726562 -1.515625 8.476562 -1.515625 C 5.226562 -1.515625 2.988281 -3.773438 2.988281 -7.0625 Z M 2.988281 -7.0625 "/></g></g></g><g fill="#ffffff" fill-opacity="1"><g transform="translate(202.129844, 226.402603)"><g><path d="M 2.058594 0 L 3.835938 0 L 3.835938 -5.953125 L 9.628906 -5.953125 L 9.628906 -7.589844 L 3.835938 -7.589844 L 3.835938 -12.472656 L 10.152344 -12.472656 L 10.152344 -14.128906 L 2.058594 -14.128906 Z M 2.058594 0 "/></g></g></g><g fill="#ffffff" fill-opacity="1"><g transform="translate(214.298443, 226.402603)"><g><path d="M 2.058594 0 L 3.835938 0 L 3.835938 -5.953125 L 9.628906 -5.953125 L 9.628906 -7.589844 L 3.835938 -7.589844 L 3.835938 -12.472656 L 10.152344 -12.472656 L 10.152344 -14.128906 L 2.058594 -14.128906 Z M 2.058594 0 "/></g></g></g><g fill="#ffffff" fill-opacity="1"><g transform="translate(226.467048, 226.402603)"><g><path d="M 2.058594 0 L 10.859375 0 L 10.859375 -1.65625 L 3.835938 -1.65625 L 3.835938 -6.378906 L 10.132812 -6.378906 L 10.132812 -8.011719 L 3.835938 -8.011719 L 3.835938 -12.472656 L 10.636719 -12.472656 L 10.636719 -14.128906 L 2.058594 -14.128906 Z M 2.058594 0 "/></g></g></g><g fill="#ffffff" fill-opacity="1"><g transform="translate(239.543742, 226.402603)"><g><path d="M 2.058594 0 L 10.859375 0 L 10.859375 -1.65625 L 3.835938 -1.65625 L 3.835938 -6.378906 L 10.132812 -6.378906 L 10.132812 -8.011719 L 3.835938 -8.011719 L 3.835938 -12.472656 L 10.636719 -12.472656 L 10.636719 -14.128906 L 2.058594 -14.128906 Z M 2.058594 0 "/></g></g></g></svg>